<?xml version="1.0" encoding="UTF-8"?>
<svg xmlns="http://www.w3.org/2000/svg" xmlns:xlink="http://www.w3.org/1999/xlink" width="16" height="14" viewBox="0 0 16 14" version="1.1">
<g id="surface1">
<path style=" stroke:none;fill-rule:nonzero;fill:rgb(78.039216%,69.803922%,60%);fill-opacity:1;" d="M 13.21875 13.78125 L 14.53125 11.484375 L 15.84375 13.78125 Z M 11.574219 11.292969 L 14.203125 11.292969 L 12.890625 13.589844 Z M 12.890625 8.613281 L 14.203125 10.910156 L 11.574219 10.910156 Z M 9.933594 8.421875 L 12.5625 8.421875 L 11.246094 10.71875 Z M 11.246094 5.742188 L 12.5625 8.039062 L 9.933594 8.039062 Z M 8.292969 5.550781 L 10.917969 5.550781 L 9.605469 7.847656 Z M 9.605469 2.871094 L 10.917969 5.167969 L 8.292969 5.167969 Z M 6.648438 2.679688 L 9.277344 2.679688 L 7.964844 4.976562 Z M 7.964844 0 L 9.277344 2.296875 L 6.648438 2.296875 Z M 5.007812 5.167969 L 6.320312 2.871094 L 7.636719 5.167969 Z M 3.367188 8.039062 L 4.679688 5.742188 L 5.992188 8.039062 Z M 1.722656 10.910156 L 3.039062 8.613281 L 4.351562 10.910156 Z M 0.0820312 13.78125 L 1.394531 11.484375 L 2.710938 13.78125 Z M 4.351562 11.292969 L 3.039062 13.589844 L 1.722656 11.292969 Z M 5.992188 8.421875 L 4.679688 10.71875 L 3.367188 8.421875 Z M 7.636719 5.550781 L 6.320312 7.847656 L 5.007812 5.550781 Z M 9.277344 13.78125 L 6.648438 13.78125 L 7.964844 11.484375 Z M 10.917969 11.292969 L 9.605469 13.589844 L 8.292969 11.292969 Z M 12.5625 13.78125 L 9.933594 13.78125 L 11.246094 11.484375 Z M 12.5625 13.78125 "/>
</g>
</svg>
